{
    "asset" : {
        "generator" : "Khronos glTF Blender I/O v3.2.43",
        "version" : "2.0"
    },
    "scene" : 0,
    "scenes" : [
        {
            "name" : "Scene",
            "nodes" : [
                0
            ]
        }
    ],
    "nodes" : [
        {
            "mesh" : 0,
            "name" : "Teapot",
            "scale" : [
                0.02539999969303608,
                0.02539999969303608,
                0.02539999969303608
            ],
            "translation" : [
                0.0015798285603523254,
                0,
                0
            ]
        }
    ],
    "meshes" : [
        {
            "name" : "Teapot001Mesh",
            "primitives" : [
                {
                    "attributes" : {
                        "POSITION" : 0,
                        "NORMAL" : 1,
                        "TEXCOORD_0" : 2
                    },
                    "indices" : 3
                }
            ]
        }
    ],
    "accessors" : [
        {
            "bufferView" : 0,
            "componentType" : 5126,
            "count" : 628,
            "max" : [
                23.234086990356445,
                21.349098205566406,
                13.55498218536377
            ],
            "min" : [
                -20.332473754882812,
                0,
                -13.55498218536377
            ],
            "type" : "VEC3"
        },
        {
            "bufferView" : 1,
            "componentType" : 5126,
            "count" : 628,
            "type" : "VEC3"
        },
        {
            "bufferView" : 2,
            "componentType" : 5126,
            "count" : 628,
            "type" : "VEC2"
        },
        {
            "bufferView" : 3,
            "componentType" : 5123,
            "count" : 2976,
            "type" : "SCALAR"
        }
    ],
    "bufferViews" : [
        {
            "buffer" : 0,
            "byteLength" : 7536,
            "byteOffset" : 0
        },
        {
            "buffer" : 0,
            "byteLength" : 7536,
            "byteOffset" : 7536
        },
        {
            "buffer" : 0,
            "byteLength" : 5024,
            "byteOffset" : 15072
        },
        {
            "buffer" : 0,
            "byteLength" : 5952,
            "byteOffset" : 20096
        }
    ],
    "buffers" : [
        {
            "byteLength" : 26048,
            "uri" : "data:application/octet-stream;base64,"
        }
    ]
}
